<svg width="1844" height="1221" viewBox="0 0 1844 1221" fill="none" xmlns="http://www.w3.org/2000/svg">
<g clip-path="url(#clip0_1_62)">
<path d="M488.905 90.3479C492.851 70.5812 500.951 57.077 513.201 49.827C525.443 42.5812 551.322 38.9562 590.83 38.9562H610.98V38.652C644.834 43.1229 666.939 56.452 678.647 65.1312C692.98 75.7521 702.455 95.0479 707.101 123.01C710.126 141.302 712.301 174.348 713.634 221.944C634.218 198.973 556.384 180.31 483.588 168.41C484.447 129.827 486.218 103.781 488.905 90.3479ZM786.576 244.065C773.522 239.927 760.48 235.898 747.464 231.961L746.78 132.556L786.576 244.065ZM1535.66 127.144L1538.6 555.24C1508.86 540.473 1465.24 519.194 1411.34 493.973L1535.66 127.144ZM1253.78 502.023L1540.19 706.74H1676.39L1673.62 303.123C1672.93 202.461 1674.95 138.702 1679.67 111.86C1684.39 85.0229 1693.96 66.6479 1708.39 56.7187C1722.81 46.7895 1753.41 41.6645 1800.16 41.3437L1835.21 41.102L1834.93 -0.00219727L1543.22 2.00198L1381.66 480.177C1266.89 427.152 1114.06 360.469 952.935 301.198L848.305 6.76864L575.134 8.64783H237.642V38.9562H256.605C297.292 38.9562 323.659 42.9104 335.717 50.8187C347.763 58.7229 355.659 73.0021 359.422 93.6437C361.592 105.623 363.138 126.152 364.051 155.119C354.351 154.631 344.826 154.344 335.442 154.223C334.801 154.215 334.163 154.206 333.526 154.198C325.213 154.115 317.034 154.177 308.992 154.394C307.501 154.431 305.992 154.448 304.509 154.498C297.109 154.748 289.842 155.144 282.692 155.66C281.088 155.777 279.438 155.835 277.847 155.96C270.23 156.59 262.763 157.377 255.451 158.323C250.301 158.977 245.326 159.819 240.33 160.64C238.205 160.994 236.046 161.31 233.951 161.694C228.292 162.715 222.784 163.89 217.342 165.14C216.313 165.377 215.284 165.615 214.263 165.86C207.713 167.423 201.367 169.198 195.126 171.077C317.792 161.26 766.651 154.073 1253.78 502.023Z" fill="#101436"/>
<path d="M1283.96 769.304L1203.69 1006.88L1031.21 521.496C974.577 478.25 911.769 437.258 842.46 400.662L1133.61 1216.44L1166.56 1216.21L1307.73 799.688C1300.1 789.679 1292.18 779.542 1283.96 769.304Z" fill="#101436"/>
<path d="M1842.97 1170.47L1800.89 1170.76C1757.87 1171.06 1728.73 1164.11 1713.44 1149.91C1698.44 1136 1688.93 1114.67 1684.86 1086.06H1536.39C1536.14 1088.08 1535.89 1089.99 1535.62 1091.71C1531.36 1119.44 1521.45 1139.93 1505.89 1153.13C1490.31 1166.34 1462.43 1173.08 1422.23 1173.35L1388.57 1173.59L1388.85 1214.69L1843.25 1211.57L1842.97 1170.47Z" fill="#101436"/>
<path d="M365.046 254.092V815.126C365.046 914.826 361.879 986.313 355.567 1029.59C349.238 1072.85 330.675 1110.4 299.863 1142.26C269.046 1174.1 231.117 1190.03 186.079 1190.03C163.958 1190.03 145.396 1186.07 130.375 1178.17C115.362 1170.26 107.858 1159.28 107.858 1145.22C107.858 1139.95 110.033 1132.04 114.375 1121.5C119.117 1109.65 121.487 1098.22 121.487 1087.24C121.487 1068.8 115.662 1053.2 104.008 1040.45C92.3583 1027.72 77.8375 1021.35 60.4458 1021.35C43.4666 1021.35 29.1416 1028.37 17.4874 1042.44C5.83738 1056.49 -0.00012207 1073.84 -0.00012207 1094.49C-0.00012207 1128.75 16.3999 1158.29 49.1874 1183.11C81.9875 1207.92 128.8 1220.33 189.638 1220.33C243.758 1220.33 291.267 1210.23 332.159 1190.03C373.046 1169.82 405.734 1140.94 430.234 1103.38C454.725 1065.83 469.642 1027.28 474.975 987.751C480.309 948.213 482.975 890.676 482.975 815.126V272.821C444.963 265.113 405.625 258.858 365.046 254.092Z" fill="#101436"/>
<path d="M804.135 1132.48C779.643 1106.15 764.935 1075.42 760.022 1040.3C755.102 1005.19 752.318 939.092 751.652 842L748.31 355.646C737.435 350.958 726.414 346.396 715.26 341.946L718.656 836.867C719.343 936.934 717.01 1005.45 711.652 1042.42C706.297 1079.4 690.964 1110.62 665.664 1136.1C640.351 1161.6 607.381 1175.98 566.731 1179.23L567.014 1220.33L907.106 1218L906.823 1176.9C862.856 1173.63 828.618 1158.82 804.135 1132.48Z" fill="#101436"/>
<path d="M1562.96 770.115L1553.99 772.635L1559.72 783.922L1566.72 780.917L1562.96 770.115Z" fill="#101436"/>
<path d="M1480.98 739.54C1484.88 721.148 1505.72 727.432 1512.32 731.215C1518.91 735.002 1523.21 742.082 1519.12 747.369C1515.03 752.661 1512.6 750.952 1491.66 757.627L1533.5 749.044C1533.5 749.044 1538.01 748.236 1539.03 745.694C1540.04 743.152 1540.7 738.661 1540.7 738.661C1540.7 738.661 1540.85 732.602 1535.75 730.907C1530.64 729.211 1505.8 724.173 1498.57 724.69C1491.34 725.207 1485.99 727.827 1483.78 731.369C1481.58 734.907 1480.98 739.54 1480.98 739.54ZM1539.77 748.94C1539.77 748.94 1542.58 746.436 1543.61 743.561C1544.65 740.686 1544.19 736.994 1544.19 736.994C1544.78 740.627 1539.77 748.94 1539.77 748.94ZM1480.74 755.194C1479.56 752.461 1477.71 741.752 1479.68 735.398C1481.65 729.044 1486.2 725.307 1490.71 723.369C1495.22 721.427 1519.2 722.948 1537.46 728.869C1541.2 730.019 1542.66 730.04 1546.42 734.257C1550.18 738.473 1562.97 770.107 1562.97 770.107L1554 772.632L1546.4 756.457C1546.4 756.457 1544.36 750.207 1536.04 752.323C1527.72 754.444 1495.58 760.319 1489.69 760.577C1483.81 760.84 1481.91 757.927 1480.74 755.194Z" fill="#101436"/>
<path d="M1660.56 1012.97C1659.9 1011.45 1659.15 1010.3 1658.88 1010.42L1657.99 1010.8C1657.73 1010.92 1658.04 1012.25 1658.7 1013.77L1684.27 1072.88C1684.93 1074.4 1685.68 1075.54 1685.95 1075.42L1686.83 1075.04C1687.1 1074.92 1686.78 1073.6 1686.12 1072.07L1660.56 1012.97ZM1665.01 1005.67C1666.54 1005.45 1668.03 1006.16 1668.63 1007.52L1695.62 1069.92C1696.34 1071.6 1695.43 1073.6 1693.58 1074.4L1687.52 1077.02C1685.67 1077.82 1683.59 1077.11 1682.86 1075.44L1655.87 1013.04C1655.26 1011.61 1655.83 1009.95 1657.17 1009L1616.3 915.037L1559.73 783.92L1566.72 780.916L1596.5 848.278L1599.91 856.087L1622.33 907.558L1622.94 908.958L1665.01 1005.67Z" fill="#101436"/>
<path d="M1650.99 766.483L1659.92 769.111L1654.05 780.329L1647.1 777.239L1650.99 766.483Z" fill="#101436"/>
<path d="M1730.63 728.697C1728.47 725.13 1723.15 722.442 1715.93 721.842C1708.71 721.238 1683.8 725.976 1678.68 727.609C1673.56 729.242 1673.63 735.305 1673.63 735.305C1673.63 735.305 1674.24 739.805 1675.23 742.359C1676.21 744.913 1680.71 745.772 1680.71 745.772L1722.44 754.859C1701.59 747.934 1699.13 749.609 1695.11 744.272C1691.08 738.934 1695.46 731.909 1702.1 728.205C1708.74 724.497 1729.66 718.463 1733.34 736.901C1733.34 736.901 1732.8 732.263 1730.63 728.697ZM1670.16 733.597C1670.16 733.597 1669.66 737.284 1670.66 740.172C1671.66 743.055 1674.44 745.597 1674.44 745.597C1674.44 745.597 1669.53 737.226 1670.16 733.597ZM1724.37 757.834C1718.49 757.505 1686.43 751.242 1678.13 749.022C1669.83 746.805 1667.72 753.03 1667.72 753.03L1659.93 769.113L1650.99 766.484C1650.99 766.484 1664.16 735.005 1667.97 730.834C1671.78 726.659 1673.24 726.659 1676.99 725.555C1695.31 719.851 1719.31 718.622 1723.8 720.613C1728.29 722.609 1732.8 726.401 1734.68 732.776C1736.58 739.151 1734.6 749.838 1733.39 752.555C1732.18 755.276 1730.25 758.163 1724.37 757.834Z" fill="#101436"/>
<path d="M1524.21 1066.94C1523.54 1068.46 1523.21 1069.78 1523.47 1069.9L1524.35 1070.29C1524.62 1070.42 1525.38 1069.28 1526.06 1067.77L1552.34 1008.97C1553.01 1007.46 1553.34 1006.13 1553.08 1006.01L1552.2 1005.62C1551.93 1005.5 1551.16 1006.63 1550.49 1008.14L1524.21 1066.94ZM1589.35 904.598L1589.98 903.203L1613.01 852.007L1616.51 844.24L1647.1 777.24L1654.05 780.328L1595.92 910.757L1553.93 1004.22C1555.24 1005.19 1555.81 1006.85 1555.17 1008.27L1527.43 1070.35C1526.69 1072.01 1524.6 1072.69 1522.76 1071.87L1516.73 1069.18C1514.89 1068.36 1514 1066.34 1514.74 1064.68L1542.49 1002.6C1543.09 1001.24 1544.6 1000.56 1546.13 1000.79L1589.35 904.598Z" fill="#101436"/>
</g>
<defs>
<clipPath id="clip0_1_62">
<rect width="1844" height="1221" fill="white"/>
</clipPath>
</defs>
</svg>
