<svg width="129" height="16" viewBox="0 0 129 16" fill="none" xmlns="http://www.w3.org/2000/svg">
<path d="M62.1523 3.62117C61.8867 3.68313 61.695 3.74509 61.5774 3.80673C61.4598 3.86869 61.366 3.94598 61.2967 4.03892C61.2271 4.13153 61.176 4.2711 61.1427 4.45666C61.1095 4.64221 61.0931 4.92918 61.0931 5.31757V12.6174C61.0931 12.9944 61.1067 13.27 61.1336 13.4445C61.1609 13.6189 61.2061 13.7569 61.2698 13.858C61.3328 13.9594 61.4266 14.0435 61.5501 14.111C61.674 14.1788 61.8748 14.2463 62.1523 14.3138V14.7274H58.376V14.3138C58.72 14.2349 58.9587 14.1449 59.0917 14.0435C59.2243 13.9424 59.315 13.7934 59.3629 13.5964C59.4115 13.3994 59.4353 13.073 59.4353 12.6174V9.38509C59.4353 8.53558 59.449 7.6763 59.4766 6.80723C59.5036 5.93783 59.5351 5.34268 59.5715 5.02212H59.4178L55.8316 13.3854H54.7898L51.4572 4.88712H51.3032C51.3333 5.2305 51.362 5.85206 51.389 6.75211C51.4163 7.65249 51.4296 8.57798 51.4296 9.52858V12.6174C51.4296 12.9944 51.4432 13.27 51.4709 13.4445C51.4978 13.6189 51.5433 13.7569 51.6063 13.858C51.67 13.9594 51.7634 14.0435 51.8873 14.111C52.0112 14.1788 52.2117 14.2463 52.4896 14.3138V14.7274H49.1836V14.3138C49.5584 14.2238 49.809 14.1237 49.9356 14.0142C50.0623 13.9043 50.1453 13.7484 50.1848 13.5459C50.2236 13.343 50.2436 13.0339 50.2436 12.6174V5.31757C50.2436 4.92918 50.2285 4.64678 50.1981 4.46937C50.168 4.2923 50.118 4.15436 50.0487 4.05587C49.9794 3.95739 49.887 3.87847 49.7726 3.81945C49.6578 3.76042 49.4615 3.69455 49.1836 3.62117V3.20767H52.4171L55.5957 11.419L59.0917 3.20767H62.1523V3.62117Z" fill="white"/>
<path d="M67.445 10.1025H71.2304L69.5097 4.6591L67.445 10.1025ZM70.9228 14.6598V14.2463C71.2244 14.1899 71.4491 14.1279 71.5971 14.0604C71.7452 13.9929 71.8557 13.899 71.9282 13.778C72.0006 13.6567 72.0367 13.4949 72.0367 13.2924C72.0367 13.1013 72.0125 12.8946 71.9642 12.6722C71.9156 12.4501 71.8463 12.2013 71.7557 11.9254L71.4208 10.8365H67.2004L66.8928 11.6639C66.7356 12.08 66.6331 12.3953 66.5845 12.6089C66.5362 12.8228 66.512 13.0169 66.512 13.1913C66.512 13.5289 66.6044 13.7764 66.7885 13.9339C66.9722 14.0914 67.255 14.1954 67.635 14.2463V14.6598H63.7681V14.2463C64.1061 14.1954 64.4004 14.0128 64.6513 13.6975C64.9016 13.3828 65.1448 12.9324 65.3803 12.3474L69.1566 3.0051H70.5875L73.6667 12.4149C73.8116 12.8538 73.94 13.1884 74.0517 13.419C74.163 13.6498 74.2973 13.8298 74.4545 13.9593C74.6116 14.0888 74.8261 14.1843 75.0973 14.2463V14.6598H70.9228Z" fill="white"/>
<path d="M80.7509 3.14027V3.55378C80.4612 3.59324 80.253 3.66628 80.1263 3.77325C79.9996 3.88021 79.9363 4.0263 79.9363 4.21218C79.9363 4.36969 79.9933 4.56666 80.1081 4.80276C80.2225 5.03919 80.3856 5.32062 80.5973 5.64672L81.9103 7.6976L83.2055 5.74814C83.3983 5.45562 83.5432 5.22213 83.6401 5.04767C83.7363 4.8732 83.8046 4.72678 83.8438 4.60873C83.883 4.49068 83.9026 4.36969 83.9026 4.24577C83.9026 4.07131 83.8487 3.92391 83.7398 3.80292C83.631 3.68194 83.4501 3.59878 83.1964 3.55378V3.14027H86.5562V3.55378C86.3326 3.62128 86.1321 3.71976 85.954 3.84923C85.7755 3.97869 85.5855 4.16718 85.3832 4.41469C85.1809 4.66221 84.8929 5.05321 84.5185 5.5877L82.472 8.54123L84.7718 12.069C85.098 12.5699 85.3321 12.9202 85.4738 13.1198C85.6156 13.3193 85.7486 13.4883 85.8724 13.6262C85.996 13.7641 86.1289 13.8835 86.2707 13.9846C86.4128 14.086 86.5895 14.1734 86.8005 14.2465V14.66H82.8251V14.2465C83.1026 14.2014 83.308 14.1297 83.441 14.0312C83.5733 13.9327 83.6401 13.785 83.6401 13.588C83.6401 13.4305 83.5964 13.2564 83.5089 13.065C83.421 12.8735 83.2867 12.6374 83.1057 12.356L81.4666 9.80718L79.7368 12.4486C79.4467 12.8934 79.3018 13.259 79.3018 13.546C79.3018 13.7315 79.3567 13.8835 79.4652 14.0015C79.5741 14.1196 79.755 14.2014 80.0087 14.2465V14.66H76.5851V14.2465C76.8084 14.1845 76.9928 14.1101 77.1377 14.0227C77.2826 13.9357 77.4212 13.8245 77.5542 13.6895C77.6868 13.5545 77.8352 13.3829 77.9979 13.1745C78.1613 12.9665 78.4206 12.6035 78.7769 12.086L80.9144 8.98017L78.3601 5.0643C78.119 4.70428 77.9359 4.44274 77.8124 4.27969C77.6885 4.11663 77.5737 3.98424 77.4681 3.88282C77.3624 3.78172 77.2675 3.70998 77.1832 3.66791C77.0982 3.62552 77.0019 3.58769 76.8934 3.55378V3.14027H80.7509Z" fill="white"/>
<path d="M91.8197 12.6175C91.8197 12.9944 91.8333 13.27 91.8603 13.4445C91.8876 13.6189 91.9327 13.7569 91.9964 13.858C92.0598 13.9594 92.1532 14.0438 92.2771 14.1114C92.4006 14.1789 92.6015 14.2464 92.8793 14.3139V14.7274H89.0572V14.3139C89.432 14.2239 89.6825 14.1237 89.8092 14.0142C89.9359 13.9043 90.0188 13.7484 90.0584 13.5459C90.0972 13.3434 90.1172 13.0339 90.1172 12.6175V5.31759C90.1172 4.9292 90.1021 4.64679 90.0717 4.46939C90.0416 4.29231 89.9916 4.15437 89.9223 4.05589C89.853 3.9574 89.7606 3.87849 89.6462 3.81946C89.5314 3.76044 89.335 3.69456 89.0572 3.62119V3.20769H92.8793V3.62119C92.6137 3.68315 92.4219 3.74511 92.3044 3.80674C92.1864 3.8687 92.0926 3.94599 92.0234 4.03893C91.9541 4.13187 91.9026 4.27112 91.8697 4.45667C91.8361 4.64223 91.8197 4.9292 91.8197 5.31759V12.6175Z" fill="white"/>
<path d="M108.199 3.68868C107.934 3.75064 107.742 3.8126 107.624 3.87423C107.507 3.93619 107.413 4.01348 107.344 4.10642C107.274 4.19903 107.223 4.33861 107.19 4.52416C107.156 4.70972 107.14 4.99669 107.14 5.38508V12.685C107.14 13.0619 107.154 13.3375 107.181 13.512C107.208 13.6864 107.253 13.8244 107.317 13.9255C107.38 14.0269 107.473 14.111 107.597 14.1785C107.721 14.2463 107.922 14.3139 108.199 14.3814V14.7949H104.423V14.3814C104.767 14.3024 105.006 14.2124 105.139 14.111C105.271 14.0099 105.362 13.8609 105.41 13.6639C105.458 13.467 105.482 13.1405 105.482 12.685V9.45259C105.482 8.60309 105.496 7.7438 105.524 6.87473C105.551 6.00533 105.582 5.41019 105.618 5.08963H105.465L101.879 13.4529H100.837L97.5041 4.95462H97.3502C97.3803 5.29801 97.409 5.91957 97.4359 6.81962C97.4632 7.72 97.4765 8.64548 97.4765 9.59608V12.685C97.4765 13.0619 97.4901 13.3375 97.5178 13.512C97.5447 13.6864 97.5902 13.8244 97.6532 13.9255C97.7169 14.0269 97.8104 14.111 97.9342 14.1785C98.0581 14.2463 98.2586 14.3139 98.5365 14.3814V14.7949H95.2305V14.3814C95.6053 14.2913 95.8559 14.1912 95.9826 14.0817C96.1093 13.9718 96.1922 13.8159 96.2317 13.6134C96.2706 13.4105 96.2905 13.1014 96.2905 12.685V5.38508C96.2905 4.99669 96.2755 4.71428 96.245 4.53688C96.2149 4.3598 96.1649 4.22186 96.0956 4.12338C96.0263 4.02489 95.9339 3.94598 95.8195 3.88695C95.7047 3.82793 95.5084 3.76205 95.2305 3.68868V3.27518H98.4641L101.643 11.4865L105.139 3.27518H108.199V3.68868Z" fill="white"/>
<path d="M119.145 10.744C119.145 11.3574 119.084 11.886 118.963 12.3305C118.849 12.7525 118.677 13.1269 118.448 13.453C118.236 13.7458 117.973 13.9946 117.659 14.2001C117.346 14.4055 116.965 14.567 116.519 14.685C116.072 14.8034 115.546 14.8624 114.942 14.8624C114.212 14.8624 113.586 14.7864 113.064 14.6345C112.541 14.4825 112.109 14.2337 111.768 13.8877C111.427 13.5417 111.181 13.1337 111.03 12.6641C110.88 12.1942 110.804 11.5965 110.804 10.8705V5.31762C110.804 4.87868 110.789 4.58193 110.759 4.42735C110.728 4.27245 110.685 4.15016 110.627 4.06016C110.57 3.97015 110.487 3.89287 110.378 3.82797C110.27 3.7634 110.067 3.69459 109.772 3.62122V3.20772H113.575V3.62122C113.237 3.70014 113.001 3.78884 112.869 3.88732C112.736 3.98548 112.645 4.13353 112.597 4.33017C112.548 4.52714 112.525 4.85618 112.525 5.31762V11.2925C112.525 11.8384 112.587 12.2969 112.71 12.668C112.834 13.0395 113.008 13.3278 113.231 13.5332C113.454 13.7386 113.72 13.8877 114.028 13.9806C114.336 14.0732 114.719 14.1199 115.178 14.1199C115.601 14.1199 115.972 14.0511 116.292 13.9131C116.612 13.7752 116.879 13.5655 117.094 13.2844C117.308 13.003 117.454 12.657 117.533 12.2461C117.611 11.8355 117.65 11.2841 117.65 10.5921V5.31762C117.65 4.82814 117.625 4.49355 117.574 4.31322C117.522 4.13353 117.438 3.99559 117.32 3.89971C117.202 3.80417 116.959 3.71155 116.591 3.62122V3.20772H120.204V3.62122C119.854 3.70568 119.614 3.79862 119.484 3.89971C119.355 4.00113 119.266 4.14723 119.217 4.33865C119.169 4.53008 119.145 4.85618 119.145 5.31762V10.744Z" fill="white"/>
<path d="M122.615 12.1029C122.736 12.5982 122.899 12.9889 123.104 13.2759C123.309 13.5628 123.575 13.7751 123.901 13.9131C124.227 14.051 124.647 14.1198 125.16 14.1198C125.867 14.1198 126.408 13.9483 126.786 13.6049C127.163 13.2618 127.352 12.7613 127.352 12.1029C127.352 11.6809 127.273 11.3264 127.116 11.0394C126.959 10.7525 126.703 10.4824 126.346 10.2294C125.99 9.97633 125.447 9.68088 124.716 9.34336C124.01 9.01693 123.452 8.69767 123.041 8.38526C122.63 8.07318 122.324 7.73435 122.122 7.36846C121.92 7.0029 121.818 6.60342 121.818 6.17002C121.818 5.53999 121.977 4.99278 122.294 4.52873C122.611 4.06436 123.075 3.70564 123.688 3.45259C124.301 3.19953 125.003 3.073 125.794 3.073C126.253 3.073 126.701 3.0955 127.139 3.1405C127.577 3.1855 128.125 3.2866 128.782 3.44411V5.72293H127.886C127.747 5.22758 127.572 4.84245 127.361 4.56656C127.149 4.291 126.902 4.09827 126.618 3.9887C126.334 3.87881 125.966 3.82402 125.513 3.82402C125.121 3.82402 124.769 3.89152 124.458 4.02653C124.147 4.16154 123.901 4.36536 123.72 4.63831C123.539 4.91126 123.449 5.23606 123.449 5.61304C123.449 6.01252 123.526 6.35003 123.679 6.62592C123.833 6.90148 124.073 7.15747 124.399 7.3939C124.725 7.63 125.208 7.89447 125.848 8.18699C126.621 8.54733 127.22 8.88192 127.646 9.19139C128.072 9.50087 128.404 9.85371 128.642 10.2506C128.88 10.6471 129 11.1099 129 11.6388C129 12.2294 128.9 12.7287 128.701 13.1366C128.502 13.5446 128.226 13.8766 127.872 14.1325C127.519 14.3885 127.097 14.5744 126.604 14.6895C126.112 14.8047 125.573 14.8624 124.988 14.8624C124.04 14.8624 122.947 14.7133 121.71 14.4153V12.1029H122.615Z" fill="white"/>
<path d="M6.62145e-05 6.23L0 15.5H1.32383L1.32389 6.57835C1.32389 6.57835 6.59463 1.77118 15.5427 1.77118L20.9116 12.4305L18.6316 6.11391C18.6316 6.11391 27.6778 6.60154 33.9782 9.57415L33.9781 15.5H35.2774L35.2775 8.85421C35.2775 8.85421 30.448 5.71912 18.1659 4.92953L16.4743 0.517096C16.4743 0.517096 6.71726 -0.109885 6.62145e-05 6.23Z" fill="white"/>
</svg>
