<svg width="132" height="14" viewBox="0 0 132 14" fill="none" xmlns="http://www.w3.org/2000/svg">
<path d="M5.73795e-05 5.28425L0 13.3174H1.14719L1.14725 5.58612C1.14725 5.58612 5.71471 1.42037 13.4689 1.42037L18.1214 10.6575L16.1456 5.18365C16.1456 5.18365 23.9847 5.60622 29.4445 8.18219L29.4444 13.3174H30.5704L30.5704 7.55831C30.5704 7.55831 26.3853 4.84153 15.742 4.1573L14.2761 0.333617C14.2761 0.333617 5.82098 -0.209706 5.73795e-05 5.28425Z" fill="white"/>
<path d="M65.1523 2.43998C64.8867 2.50194 64.695 2.5639 64.5774 2.62553C64.4598 2.68749 64.366 2.76478 64.2967 2.85772C64.2271 2.95033 64.176 3.0899 64.1427 3.27546C64.1095 3.46101 64.0931 3.74799 64.0931 4.13638V11.4362C64.0931 11.8132 64.1067 12.0888 64.1336 12.2633C64.1609 12.4377 64.2061 12.5757 64.2698 12.6768C64.3328 12.7782 64.4266 12.8623 64.5501 12.9298C64.674 12.9976 64.8748 13.0651 65.1523 13.1327V13.5462H61.376V13.1327C61.72 13.0537 61.9587 12.9637 62.0917 12.8623C62.2243 12.7612 62.315 12.6122 62.3629 12.4152C62.4115 12.2183 62.4353 11.8918 62.4353 11.4362V8.20389C62.4353 7.35439 62.449 6.4951 62.4766 5.62603C62.5036 4.75663 62.5351 4.16149 62.5715 3.84093H62.4178L58.8316 12.2042H57.7898L54.4572 3.70592H54.3032C54.3333 4.04931 54.362 4.67086 54.389 5.57092C54.4163 6.47129 54.4296 7.39678 54.4296 8.34738V11.4362C54.4296 11.8132 54.4432 12.0888 54.4709 12.2633C54.4978 12.4377 54.5433 12.5757 54.6063 12.6768C54.67 12.7782 54.7634 12.8623 54.8873 12.9298C55.0112 12.9976 55.2117 13.0651 55.4896 13.1327V13.5462H52.1836V13.1327C52.5584 13.0426 52.809 12.9425 52.9356 12.833C53.0623 12.7231 53.1453 12.5672 53.1848 12.3647C53.2236 12.1618 53.2436 11.8527 53.2436 11.4362V4.13638C53.2436 3.74799 53.2285 3.46558 53.1981 3.28818C53.168 3.1111 53.118 2.97316 53.0487 2.87467C52.9794 2.77619 52.887 2.69727 52.7726 2.63825C52.6578 2.57922 52.4615 2.51335 52.1836 2.43998V2.02647H55.4171L58.5957 10.2378L62.0917 2.02647H65.1523V2.43998Z" fill="white"/>
<path d="M70.445 8.92126H74.2304L72.5097 3.47791L70.445 8.92126ZM73.9228 13.4786V13.0651C74.2244 13.0087 74.4491 12.9467 74.5971 12.8792C74.7452 12.8117 74.8557 12.7178 74.9282 12.5968C75.0006 12.4755 75.0367 12.3137 75.0367 12.1112C75.0367 11.9201 75.0125 11.7134 74.9642 11.491C74.9156 11.2689 74.8463 11.0201 74.7557 10.7442L74.4208 9.65533H70.2004L69.8928 10.4827C69.7356 10.8988 69.6331 11.2141 69.5845 11.4277C69.5362 11.6416 69.512 11.8357 69.512 12.0101C69.512 12.3477 69.6044 12.5952 69.7885 12.7527C69.9722 12.9102 70.255 13.0142 70.635 13.0651V13.4786H66.7681V13.0651C67.1061 13.0142 67.4004 12.8316 67.6513 12.5163C67.9016 12.2016 68.1448 11.7512 68.3803 11.1662L72.1566 1.8239H73.5875L76.6667 11.2337C76.8116 11.6726 76.94 12.0072 77.0517 12.2378C77.163 12.4686 77.2973 12.6487 77.4545 12.7781C77.6116 12.9076 77.8261 13.0031 78.0973 13.0651V13.4786H73.9228Z" fill="white"/>
<path d="M83.7509 1.95908V2.37258C83.4612 2.41204 83.253 2.48508 83.1263 2.59205C82.9996 2.69901 82.9363 2.84511 82.9363 3.03099C82.9363 3.18849 82.9933 3.38546 83.1081 3.62156C83.2225 3.85799 83.3856 4.13942 83.5973 4.46552L84.9103 6.5164L86.2055 4.56694C86.3983 4.27443 86.5432 4.04093 86.6401 3.86647C86.7363 3.692 86.8046 3.54558 86.8438 3.42753C86.883 3.30948 86.9026 3.18849 86.9026 3.06457C86.9026 2.89011 86.8487 2.74271 86.7398 2.62172C86.631 2.50074 86.4501 2.41758 86.1964 2.37258V1.95908H89.5562V2.37258C89.3326 2.44008 89.1321 2.53857 88.954 2.66803C88.7755 2.79749 88.5855 2.98598 88.3832 3.2335C88.1809 3.48101 87.8929 3.87201 87.5185 4.4065L85.472 7.36004L87.7718 10.8878C88.098 11.3887 88.3321 11.739 88.4738 11.9386C88.6156 12.1381 88.7486 12.3071 88.8724 12.445C88.996 12.5829 89.1289 12.7023 89.2707 12.8034C89.4128 12.9048 89.5895 12.9922 89.8005 13.0653V13.4788H85.8251V13.0653C86.1026 13.0203 86.308 12.9485 86.441 12.85C86.5733 12.7515 86.6401 12.6038 86.6401 12.4068C86.6401 12.2493 86.5964 12.0752 86.5089 11.8838C86.421 11.6923 86.2867 11.4562 86.1057 11.1748L84.4666 8.62598L82.7368 11.2674C82.4467 11.7122 82.3018 12.0778 82.3018 12.3648C82.3018 12.5503 82.3567 12.7023 82.4652 12.8203C82.5741 12.9384 82.755 13.0203 83.0087 13.0653V13.4788H79.5851V13.0653C79.8084 13.0033 79.9928 12.9289 80.1377 12.8415C80.2826 12.7545 80.4212 12.6433 80.5542 12.5083C80.6868 12.3733 80.8352 12.2017 80.9979 11.9933C81.1613 11.7853 81.4206 11.4223 81.7769 10.9048L83.9144 7.79897L81.3601 3.8831C81.119 3.52308 80.9359 3.26154 80.8124 3.09849C80.6885 2.93544 80.5737 2.80304 80.4681 2.70162C80.3624 2.60053 80.2675 2.52878 80.1832 2.48671C80.0982 2.44432 80.0019 2.40649 79.8934 2.37258V1.95908H83.7509Z" fill="white"/>
<path d="M94.8197 11.4363C94.8197 11.8132 94.8333 12.0888 94.8603 12.2633C94.8876 12.4377 94.9327 12.5757 94.9964 12.6768C95.0598 12.7782 95.1532 12.8627 95.2771 12.9302C95.4006 12.9977 95.6015 13.0652 95.8793 13.1327V13.5462H92.0572V13.1327C92.432 13.0427 92.6825 12.9425 92.8092 12.833C92.9359 12.7231 93.0188 12.5672 93.0584 12.3647C93.0972 12.1622 93.1172 11.8527 93.1172 11.4363V4.13639C93.1172 3.748 93.1021 3.46559 93.0717 3.28819C93.0416 3.11112 92.9916 2.97317 92.9223 2.87469C92.853 2.77621 92.7606 2.69729 92.6462 2.63826C92.5314 2.57924 92.335 2.51336 92.0572 2.43999V2.02649H95.8793V2.43999C95.6137 2.50195 95.4219 2.56391 95.3044 2.62555C95.1864 2.68751 95.0926 2.76479 95.0234 2.85773C94.9541 2.95067 94.9026 3.08992 94.8697 3.27547C94.8361 3.46103 94.8197 3.748 94.8197 4.13639V11.4363Z" fill="white"/>
<path d="M111.199 2.50748C110.934 2.56944 110.742 2.6314 110.624 2.69303C110.507 2.75499 110.413 2.83228 110.344 2.92522C110.274 3.01784 110.223 3.15741 110.19 3.34296C110.156 3.52852 110.14 3.81549 110.14 4.20388V11.5038C110.14 11.8807 110.154 12.1563 110.181 12.3308C110.208 12.5052 110.253 12.6432 110.317 12.7443C110.38 12.8457 110.473 12.9298 110.597 12.9973C110.721 13.0651 110.922 13.1327 111.199 13.2002V13.6137H107.423V13.2002C107.767 13.1212 108.006 13.0312 108.139 12.9298C108.271 12.8287 108.362 12.6797 108.41 12.4827C108.458 12.2858 108.482 11.9593 108.482 11.5038V8.2714C108.482 7.42189 108.496 6.5626 108.524 5.69353C108.551 4.82413 108.582 4.22899 108.618 3.90843H108.465L104.879 12.2717H103.837L100.504 3.77342H100.35C100.38 4.11681 100.409 4.73837 100.436 5.63842C100.463 6.5388 100.477 7.46429 100.477 8.41488V11.5038C100.477 11.8807 100.49 12.1563 100.518 12.3308C100.545 12.5052 100.59 12.6432 100.653 12.7443C100.717 12.8457 100.81 12.9298 100.934 12.9973C101.058 13.0651 101.259 13.1327 101.536 13.2002V13.6137H98.2305V13.2002C98.6053 13.1102 98.8559 13.01 98.9826 12.9005C99.1093 12.7906 99.1922 12.6347 99.2317 12.4322C99.2706 12.2293 99.2905 11.9202 99.2905 11.5038V4.20388C99.2905 3.81549 99.2755 3.53308 99.245 3.35568C99.2149 3.17861 99.1649 3.04066 99.0956 2.94218C99.0263 2.8437 98.9339 2.76478 98.8195 2.70575C98.7047 2.64673 98.5084 2.58085 98.2305 2.50748V2.09398H101.464L104.643 10.3053L108.139 2.09398H111.199V2.50748Z" fill="white"/>
<path d="M122.145 9.56282C122.145 10.1762 122.084 10.7048 121.963 11.1493C121.849 11.5713 121.677 11.9457 121.448 12.2718C121.236 12.5646 120.973 12.8134 120.659 13.0189C120.346 13.2243 119.965 13.3858 119.519 13.5038C119.072 13.6222 118.546 13.6812 117.942 13.6812C117.212 13.6812 116.586 13.6052 116.064 13.4533C115.541 13.3013 115.109 13.0525 114.768 12.7065C114.427 12.3605 114.181 11.9525 114.03 11.4829C113.88 11.013 113.804 10.4153 113.804 9.68935V4.13642C113.804 3.69749 113.789 3.40073 113.759 3.24615C113.728 3.09125 113.685 2.96896 113.627 2.87896C113.57 2.78895 113.487 2.71167 113.378 2.64677C113.27 2.5822 113.067 2.5134 112.772 2.44002V2.02652H116.575V2.44002C116.237 2.51894 116.001 2.60764 115.869 2.70612C115.736 2.80428 115.645 2.95233 115.597 3.14898C115.548 3.34594 115.525 3.67498 115.525 4.13642V10.1113C115.525 10.6572 115.587 11.1157 115.71 11.4868C115.834 11.8583 116.008 12.1466 116.231 12.352C116.454 12.5575 116.72 12.7065 117.028 12.7994C117.336 12.892 117.719 12.9387 118.178 12.9387C118.601 12.9387 118.972 12.8699 119.292 12.7319C119.612 12.594 119.879 12.3843 120.094 12.1032C120.308 11.8218 120.454 11.4758 120.533 11.0649C120.611 10.6543 120.65 10.1029 120.65 9.41086V4.13642C120.65 3.64694 120.625 3.31235 120.574 3.13202C120.522 2.95233 120.438 2.81439 120.32 2.71852C120.202 2.62297 119.959 2.53035 119.591 2.44002V2.02652H123.204V2.44002C122.854 2.52448 122.614 2.61742 122.484 2.71852C122.355 2.81993 122.266 2.96603 122.217 3.15745C122.169 3.34888 122.145 3.67498 122.145 4.13642V9.56282Z" fill="white"/>
<path d="M125.615 10.9217C125.736 11.417 125.899 11.8077 126.104 12.0947C126.309 12.3816 126.575 12.5939 126.901 12.7319C127.227 12.8698 127.647 12.9386 128.16 12.9386C128.867 12.9386 129.408 12.7671 129.786 12.4237C130.163 12.0806 130.352 11.5801 130.352 10.9217C130.352 10.4997 130.273 10.1452 130.116 9.85824C129.959 9.57126 129.703 9.30125 129.346 9.04819C128.99 8.79513 128.447 8.49968 127.716 8.16216C127.01 7.83573 126.452 7.51647 126.041 7.20406C125.63 6.89198 125.324 6.55315 125.122 6.18726C124.92 5.8217 124.818 5.42222 124.818 4.98883C124.818 4.35879 124.977 3.81158 125.294 3.34754C125.611 2.88316 126.075 2.52445 126.688 2.27139C127.301 2.01833 128.003 1.8918 128.794 1.8918C129.253 1.8918 129.701 1.9143 130.139 1.9593C130.577 2.00431 131.125 2.1054 131.782 2.26291V4.54173H130.886C130.747 4.04638 130.572 3.66125 130.361 3.38536C130.149 3.1098 129.902 2.91708 129.618 2.8075C129.334 2.69761 128.966 2.64282 128.513 2.64282C128.121 2.64282 127.769 2.71033 127.458 2.84533C127.147 2.98034 126.901 3.18416 126.72 3.45711C126.539 3.73006 126.449 4.05486 126.449 4.43184C126.449 4.83132 126.526 5.16884 126.679 5.44472C126.833 5.72028 127.073 5.97627 127.399 6.2127C127.725 6.4488 128.208 6.71327 128.848 7.00579C129.621 7.36614 130.22 7.70072 130.646 8.0102C131.072 8.31967 131.404 8.67252 131.642 9.06939C131.88 9.46593 132 9.92868 132 10.4576C132 11.0482 131.9 11.5475 131.701 11.9554C131.502 12.3634 131.226 12.6954 130.872 12.9513C130.519 13.2073 130.097 13.3932 129.604 13.5083C129.112 13.6235 128.573 13.6812 127.988 13.6812C127.04 13.6812 125.947 13.5321 124.71 13.2341V10.9217H125.615Z" fill="white"/>
</svg>
